<svg xmlns="http://www.w3.org/2000/svg" xmlns:xlink="http://www.w3.org/1999/xlink" width="1370px" height="650px" viewBox="0 0  1370 650" preserveAspectRatio="xMidYMid meet" ><rect id="svgEditorBackground" x="0" y="0" width="1370" height="650" style="fill: none; stroke: none;"/><path d="M310,139l-1,0l-1,2l-2,6l-2,8l-3,13l-3,15l-1,14l0,12l0,15l0,10l-3,13l-6,10l-5,7l-4,4l-4,5l-3,3l-4,3l-5,5l-3,4l-4,3l-6,4l-5,5l-6,3l-7,2l-9,2l-8,1l-6,0l-4,-4l-5,-6l-2,-11l-1,-12l2,-13l3,-12l4,-7l4,-4l4,-2l5,-1l5,1l6,5l7,11l11,12l13,12l17,11l20,12l21,11l21,10l21,7l14,4l13,0l12,-3l10,-9l7,-22l4,-31l1,-25l0,-26l1,-24l0,-23l-3,-22l-10,-22l-10,-16l-10,-8l-7,-4l-7,-3l-7,-1l-9,-1l-8,0l-10,1l-10,5l-9,5l-7,8l-6,11l-6,10l-2,9l-1,9l0,6l0,5l4,5l6,3l7,3l11,4l15,4l17,4l21,3l18,1l18,-5l18,-14l11,-10l11,-12l12,-11l7,-6l5,-4l1,-3l2,-3l1,-3l0,-2l1,-1" stroke="black" id="e1_freepath" style="fill: none; stroke-width: 1px;"/><path d="M506,160l0,1l1,0l1,0l3,1l2,2l5,1l9,2l14,0l17,-2l13,-6l13,-10l12,-12l11,-10l8,-10l9,-7l6,-4l4,-3l3,-3l2,0l-1,0l-2,5l-6,11l-8,18l-11,21l-15,25l-13,24l-8,20l-8,22l-9,19l-7,15l-5,9l-4,8l-3,6l-2,5l-1,2l0,2l0,1l1,0l4,0l5,-3l6,-7l8,-12l6,-12l4,-9l3,-12l4,-13l6,-14l4,-11l3,-9l2,-11l2,-7l1,-5l0,-5l2,-4l2,-5l3,-5l3,-6l3,-8l4,-5l3,-4l3,-4l3,-3l3,-4l5,-5l2,-3l4,-5l5,-3l5,-4l6,-3l6,-3l6,-2l6,-1l6,-2l7,0l11,1l9,2l10,2l10,3l9,2l7,3l6,3l5,4l5,8l4,7l4,8l5,10l4,9l3,9l0,12l-2,14l-5,13l-3,12l-7,10l-6,8l-10,6l-15,5l-20,5l-23,4l-26,7l-25,4l-26,3l-23,-3l-19,-6l-17,-9l-12,-8l-5,-6l-1,-3l1,-4l3,-2l2,-3l0,-1" stroke="black" id="e2_freepath" style="fill: none; stroke-width: 1px;"/></svg>